<?xml version="1.0" encoding="utf-8"?>
<!-- Generator: Adobe Illustrator 27.9.0, SVG Export Plug-In . SVG Version: 6.00 Build 0)  -->
<svg version="1.1" id="Layer_1" xmlns="http://www.w3.org/2000/svg" xmlns:xlink="http://www.w3.org/1999/xlink" x="0px" y="0px"
	 viewBox="0 0 600 96" style="enable-background:new 0 0 600 96;" xml:space="preserve">
<style type="text/css">
	.st0{fill:#1D1D1D;}
</style>
<g>
	<path class="st0" d="M247.2,87h42v-16h-23.9V54.6h21.6V39.1h-21.6V25.1h23.9V9h-42V87z M223.4,87h18.1V9h-18.1V87z M71.7,51.5
		l9.2-21.6L90,51.5H71.7z M37.9,87h18.6l8.2-19.4h32l8.2,19.4h18.6L94.6,18.2c-2.7-6.5-7.7-10.3-13.7-10.3s-11,3.8-13.7,10.3
		L37.9,87z M5,87h12.4c15.4,0,23.5-8,23.5-23.5V9H22.7v53.3c0,5.4-3.2,8.6-8.6,8.6H5V87z M172.2,88.1c5.1,0,8.9-3.1,10.8-7.9
		l16.6-44V87h18.1V24c0-8.4-5.7-16.1-15-16.1c-7.2,0-12.6,4.8-14.9,11l-15.6,41.8l-15.7-41.8c-2.3-6.2-7.7-11-14.9-11
		c-9.3,0-15,7.8-15,16.1V87h18.1V36.2l16.6,44C163.2,85,167.1,88.1,172.2,88.1z"/>
	<g>
		<path class="st0" d="M588.5,51.7l-20.9-20.2c-0.9-0.9-1.3-1.8-1.3-2.9c0-1.8,1.6-3.5,4-3.5h21.2V9h-21.2c-13.5,0-22,9.2-22,19.7
			c0,5.1,1.6,10.9,6.5,15.6l20.9,20.2c0.9,0.9,1.3,1.8,1.3,2.9c0,1.8-1.6,3.5-4,3.5h-24.7v16H573c13.5,0,22-9.2,22-19.7
			C595,62.1,593.4,56.4,588.5,51.7z"/>
		<polygon class="st0" points="501.9,87 543.8,87 543.8,70.9 520,70.9 520,54.6 541.5,54.6 541.5,39.1 520,39.1 520,25.1 
			543.8,25.1 543.8,9 501.9,9 		"/>
		<path class="st0" d="M478.1,61.4l-14.9-42c-2.3-6.5-7.6-11.6-15.4-11.6c-9.7,0-15.3,7.7-15.3,16.6V87h18.1V34.6l14.9,42
			c2.3,6.5,7.6,11.6,15.4,11.6c9.7,0,15.3-7.7,15.3-16.6V9h-18.1V61.4z"/>
		<path class="st0" d="M387.8,7.9c-22.2,0-40.2,18-40.2,40c0,22.2,18,40.2,40.2,40.2c22.1,0,40-18,40-40.2
			C427.9,25.9,409.9,7.9,387.8,7.9z M387.8,70.4c-11.6,0-20.8-9.3-20.8-22.4c0-13,9.3-22.3,20.8-22.3c11.4,0,20.7,9.3,20.7,22.3
			C408.5,61.1,399.3,70.4,387.8,70.4z"/>
		<path class="st0" d="M325,62.4c0,5.4-3.2,8.6-8.6,8.6h-9.2v16h12.4c15.4,0,23.5-8,23.5-23.5V9H325V62.4z"/>
	</g>
</g>
</svg>
