<?xml version="1.0" encoding="utf-8"?>
<!-- Generator: Adobe Illustrator 27.9.0, SVG Export Plug-In . SVG Version: 6.00 Build 0)  -->
<svg version="1.1" id="Layer_1" xmlns="http://www.w3.org/2000/svg" xmlns:xlink="http://www.w3.org/1999/xlink" x="0px" y="0px"
	 viewBox="0 0 1917 206.4" style="enable-background:new 0 0 1917 206.4;" xml:space="preserve">
<style type="text/css">
	.st0{fill:#E7E500;}
</style>
<g>
	<path class="st0" d="M101.7,8.9C37.1,11.4-3.3,52.2,0.2,115.2c3.7,67.5,63.6,98.7,128.6,89.7c58.9-8.2,91.1-51.4,86.2-108
		C209.9,37.1,161.3,6.5,101.7,8.9z M135.3,127.1c-2.2,27.3-44,31.3-53.5,6.9c-3-7.7-2.4-32.8-1.9-42c0.8-15.6,8.9-26.3,26-27.1
		C144.4,63.1,133.9,103.3,135.3,127.1z"/>
	<polygon class="st0" points="342.3,41 342.2,41 342.2,41 	"/>
	<path class="st0" d="M362.9,45.9c-0.4,6.7,2.9,14.3-6.4,15c-12.9,1-27.1-0.8-40.1,0c-3.1-0.3-6-0.7-6.4-4.2
		c-0.4-3.4,0-10.8,2.8-13.3c1.1-1,5.1-2.4,6.6-2.4h22.9V4.2c-2.3-1.1-5.5-1.7-8.2-2.1c-34.1-5.4-79.5-2.3-84.3,38.7
		c-0.6,4.8,0.3,12.5-0.6,16.5c-0.5,1.9-3,3.6-5,3.6h-18.4v41h8.9c4.7,0,10.9,3.2,13,7.4c0.3,0.7,1.7,4.6,1.7,5.1v85.7H310V114
		c0-2.5,3.2-7.6,5.4-9.1c5.8-4,24.1-3.5,31.6-3c6.5,0.4,12.1,2.4,14.6,8.6c0.2,0.6,1.3,3.6,1.3,3.9v85.7h60.3V118
		c0-1.6,0.8-5.4,1.4-7.1c1.8-5.1,7.8-9.1,13.3-9.1h18v-41h-27.1c-0.4,0-3.2-0.9-3.6-1.2c-2.4-1.7-1.8-7.5-1.4-10
		c0.6-3.7,1.7-6.4,5.6-7.8c0.6-0.2,3.2-0.9,3.6-0.9h22.9V4.2c-2.3-1.1-5.5-1.7-8.2-2.1C410-3.9,365.3,0.7,362.9,45.9z"/>
	<path class="st0" d="M1023.7,14.6L1023.7,14.6l-58.5,0.1h0v49.9c0,2.1-1.3,6.1-2.4,8c-5.2,8.7-15.2,6.6-20.2-0.9l-32.9-57H833V56
		c-13.1-23.6-38.1-39.1-67.3-44.7c-40-7.7-87.1,1-113.1,33.1c-9.5-18.4-30.6-28.1-54-29.6H483.1v185.4l119.6,0
		c22.1-0.5,42.3-10.2,53-25.7c27.1,29.8,74.1,37.1,113.1,28.6c27.9-6.1,51.3-21.6,64.2-44.1v41.2h59.5v-48.7c0-2.1,1-6.1,1.9-8.2
		c4-9.1,14.6-8.6,20.2-1.2l33.5,58.1h75.6v0.1h24.1c0.7-15.1-0.9-30.8,0-45.8c0.9-15.5,8-29.3,23.5-35.3c3-1.2,9.6-3.1,12.7-3.1h46
		V96.5l-0.8-0.7h-54.4c-15.6,0-27-16.1-27-30.4c0-14.3,11.6-30.4,27.5-30.4h70.1V15.3l-0.8-0.7H1023.7z M560.7,61.4L560.7,61.4
		c5.5-0.5,19.4-0.7,24.5,0.5c12.4,2.9,12.2,22.4-3.1,23.7c-5.6,0.5-16.3,0.5-21.9,0C544.7,84.2,543.6,62.9,560.7,61.4z M589.9,153.1
		c-10-0.6-21.1,0.9-31,0c-13.6-1.2-14.2-21.5-0.7-23.8c9.8,0.5,20.9-1,30.5-0.1C602.6,130.5,603.4,150.5,589.9,153.1z M768.5,124.9
		c-1.2,13.6-9.9,26.7-25,27.8c-43.2,3.4-30-42.2-32-68.2c3.1-26.7,43.8-31.3,54-6.3c1.2,2.9,1.6,6.1,2.8,8.9H833v37.8H768.5z"/>
	<path class="st0" d="M1254.1,66.4c-42.2-12.6-87,9.5-94.7,52.5c-8.4,46.6,24.3,87.1,74.6,84.2c28.2-1.6,52.1-17.4,60.8-43.6h-26.2
		c-8.2,24.3-43.9,28.9-64.5,17.4c-9.4-5.2-22.3-18.6-15.8-29.8c2-3.4,8.8-7,12.8-7h97.3v0C1302.2,108.5,1287.3,76.3,1254.1,66.4z
		 M1251.4,121.5c-12.3,0.8-30.4,0.8-42.6,0c-19.7-1.3-25.8-15-10.3-27.7c7.2-5.9,16.9-9.5,26.3-10.3c10.8-0.9,22.5,0.7,31.9,6
		C1275.6,100.3,1276.7,120,1251.4,121.5z"/>
	<path class="st0" d="M1400.1,126.6c-11.5-3.3-41.4-6.6-47.8-15.8c-6.9-10,0.1-22.7,10.7-26.6c18.9-7,41,1.4,40,23h23.6
		c0.5-36-36.4-49.5-68.4-41.4c-22.8,5.7-38.3,24.4-31.4,47.8c7.4,25.1,41.6,25.4,62.8,31.5c11.5,3.3,18.4,9.1,16.8,21.6
		c-2.6,20.3-34.5,22-49,13.4c-8.1-4.8-11.8-12.9-12-21.9h-24.1c-0.5,16,7.3,29.9,21.6,37.8c27.1,15.1,84.4,9.7,87.7-27.7
		C1432.8,145.3,1422.2,133,1400.1,126.6z"/>
	<polygon class="st0" points="1426.7,107.1 1426.7,107.1 1426.7,107.2 	"/>
	<path class="st0" d="M1684.2,126.5c-6.1,9.9-17.5,14.2-27.7,6.3c-6.4-4.9-8.5-13.3-11.1-20.4c-5.7-15.2-10.3-30.8-16.7-45.8h-25.9
		l51.4,132.4c0.4,0.8,1,0.7,1.7,0.8c7.3,0.8,16.2-0.7,23.7,0l52.1-133.2H1706C1699,86.6,1692.3,106.8,1684.2,126.5z"/>
	<path class="st0" d="M1497,54.4V22h-23.6v34.9c0,3.8-6.1,9.7-10,9.7h-15.2v18.8h15.2c3.9,0,10,5.9,10,9.7v104.7h23.6V97.5
		c0-5.1,7.3-12.1,12.6-12.1h18.2V66.6h-18.2C1504.4,66.6,1497,59.5,1497,54.4z"/>
	<path class="st0" d="M1793.1,63.6c-24.2,2.8-45.7,17.6-45,43h24.1c-0.9-28.6,48.7-33.2,59.1-10.2c2.7,5.9,4.5,18.8-1.7,22.8
		c-6.2,4.1-27.6,1.8-36.2,2.3c-29.9,1.6-57.5,18.4-49.3,51c7.1,28.1,46.3,37.9,70.9,25.8c3.1-1.5,8.3-6.2,11.2-6.5
		c6-0.7,9.1,2.2,9,7.9h22.1v-95.3C1855,70.6,1824.1,60,1793.1,63.6z M1830.3,159.9c-2.9,32.4-70.3,32.7-62.5-2.9
		c2.6-12.1,14.8-17.1,26.5-18l0,0C1811.1,137.6,1832.3,137.8,1830.3,159.9z"/>
	<rect x="1893.4" y="2.7" class="st0" width="23.6" height="197"/>
	<rect x="1553" y="66.6" class="st0" width="23.6" height="133.2"/>
	<rect x="1553" y="2.7" class="st0" width="23.6" height="38.1"/>
</g>
</svg>
