<?xml version="1.0" encoding="utf-8"?>
<!-- Generator: Adobe Illustrator 27.9.0, SVG Export Plug-In . SVG Version: 6.00 Build 0)  -->
<svg version="1.1" id="Layer_1" xmlns="http://www.w3.org/2000/svg" xmlns:xlink="http://www.w3.org/1999/xlink" x="0px" y="0px"
	 viewBox="0 0 402 96" style="enable-background:new 0 0 402 96;" xml:space="preserve">
<style type="text/css">
	.st0{fill:#1D1D1D;}
	.st1{fill:none;}
</style>
<g>
	<g>
		<g>
			<path class="st0" d="M190.2,74.8c-0.8,0-1.5-1-1.5-2.1v-25c0-1.3,0.3-1.8,0.3-1.8l0,0c0,0,0.1,0,0.1,0c0.7,0.1,1.6,0.1,2.4,0
				c3.5-0.2,6.1-3.6,6.1-7.9c0-4.2-2.7-7.6-6-7.6c-0.6,0-1.2,0.1-1.7,0.4c-0.6,0.2-0.9,0.2-1.1-0.1c-0.1-0.1-0.1-0.4-0.1-0.5v-18
				c0-3.9-3-7.1-6.8-7.1c-3.7,0-6.7,3.2-6.7,7.1v19.1c0,0.4-0.1,0.4-0.2,0.5l-0.1,0.1c-0.1,0.1-0.4,0.1-0.9-0.1
				c-0.6-0.2-1.2-0.2-1.6-0.2c-3.1,0-5.6,3.1-5.6,7.1c0,4,2.4,7.1,5.6,7.4c0.9,0.1,1.7,0,2.3-0.1h0c0.1,0.1,0.4,0.7,0.4,1.8v31.9
				c0,7.7,4.1,10.4,8,10.4h6.9c5.4,0,7.6-2.2,7.6-7.7C197.8,77.5,196.7,75.2,190.2,74.8z"/>
			<path class="st0" d="M222,30.5c-5.3,0-8.2,4.8-8.8,5.7c0,0,0,0,0,0c0,0,0-0.1,0-0.2l-0.1-0.5H213c-0.9-3-3.5-5.1-6.4-5.1
				c-3.7,0-6.8,3.2-6.8,7.2v45.8c0,4,3,7.2,6.8,7.2c3.7,0,6.8-3.2,6.8-7.2V52.1c0-4.4,0.6-5.1,1.6-5.6c0.9-0.4,1.6-0.1,2.3,1
				c0.2,0.3,0.4,0.9,0.6,1.5c0.6,1.7,1.3,4,3.8,5.3c0.9,0.4,1.8,0.7,2.8,0.7c2,0,4.1-1,5.3-2.5c2.6-3.2,1.9-11.8,0.9-15.6
				C229.8,33.9,227.1,30.5,222,30.5z"/>
			<path class="st0" d="M142.8,30.6c-3.5,0-7,2.2-8.7,5.5c0,0,0,0,0,0c0,0,0-0.1,0-0.1V12.9c0-4.1-3.1-7.4-7-7.4
				c-3.9,0-7.1,3.3-7.1,7.4v70.4c0,4.1,3.2,7.4,7.1,7.4c3.9,0,7-3.3,7-7.4v-34c0-1.4,0.4-3,2.2-3c1.8,0,2.2,1.6,2.2,3v34.2
				c0,4,3,7.2,6.8,7.2c3.8,0,6.9-3.2,6.9-7.2V40.6C152.3,34.3,148.8,30.6,142.8,30.6z"/>
			<path class="st0" d="M35.8,44.3c0.5,0,1.9,0,2.2,3c0.3,2.4,1.8,4.3,4,5.2c0.8,0.3,1.8,0.5,2.7,0.5c1.6,0,6.9-0.7,6.9-9.6
				c0-7.6-6.5-12.9-15.9-12.9c-9.8,0-15.5,7.3-15.8,14.1c-0.4,6.2,1.1,10.6,4.8,14.7c1.7,1.9,3.8,3.7,5.8,5.4
				c3.8,3.2,7.3,6.3,7.2,9.1c0,1.1-0.9,2.3-2,2.3c-1,0-1.8-1-1.9-2.2c-0.3-2.3-0.9-4.1-2.6-5.8c-0.9-1-2.5-1.6-4.3-1.6
				c-1.5,0-3,0.4-4.1,1.3c-2.7,2.1-3.7,6.3-2.8,11.2c1.5,7.6,7,11.8,15.7,11.8c9.4,0,15.9-6.5,15.9-15.9c0-8.7-1.7-13.6-12.2-21.6
				c-2.3-1.7-5.5-4.3-5.5-7.2C34.1,44.6,35.2,44.3,35.8,44.3z"/>
			<path class="st0" d="M109.9,74.8c-0.8,0-1.5-1-1.5-2.1v-25c0-1.3,0.3-1.8,0.3-1.8l0,0c0,0,0.1,0,0.1,0c0.7,0.1,1.6,0.1,2.4,0
				c3.5-0.2,6.1-3.6,6.1-7.9c0-4.2-2.7-7.6-6-7.6c-0.6,0-1.2,0.1-1.7,0.4c-0.6,0.2-0.9,0.2-1.1-0.1c-0.1-0.1-0.1-0.4-0.1-0.5v-18
				c0-3.9-3-7.1-6.8-7.1C98,5,95,8.2,95,12.1v19.1c0,0.4-0.1,0.4-0.2,0.5l-0.1,0.1c-0.1,0.1-0.4,0.1-0.9-0.1
				c-0.6-0.2-1.2-0.2-1.6-0.2c-3.1,0-5.6,3.1-5.6,7.1c0,4,2.4,7.1,5.6,7.4c0.9,0.1,1.7,0,2.3-0.1h0c0.1,0.1,0.4,0.7,0.4,1.8v31.9
				c0,7.7,4.1,10.4,8,10.4h6.9c5.4,0,7.6-2.2,7.6-7.7C117.5,77.5,116.4,75.2,109.9,74.8z"/>
			<path class="st0" d="M79.5,65.3c-3.8-0.2-7.1,2.7-7.4,6.6v1.4c0,1.1-1.1,2-2,2c-1.1,0-2-0.9-2-2V63.2c0-0.2,0.2-0.4,0.3-0.4h12
				c3,0,5.5-2.4,5.5-5.4V44.6c0-7.7-7-14-15.7-14c-8.7,0-15.8,6.3-15.8,14v32.1c0,7.7,7.1,14,15.8,14c8.7,0,15.8-6.2,15.9-13.8
				l0.1-4.3C86.4,68.9,83.4,65.5,79.5,65.3z M66.8,52.7v-5.3c0-1.8,1.5-3.3,3.3-3.3c1.7,0,3.2,1.5,3.2,3.3v6.2H73
				c-0.3,0.4-0.8,0.6-1.2,0.6h-3.4C67.6,54.2,66.8,53.7,66.8,52.7z"/>
			<path class="st0" d="M296.5,34.6c-0.7-1.6-1.9-2.8-3.5-3.4c-0.8-0.3-1.6-0.5-2.5-0.5c-2.8,0-5.3,1.8-6.5,4.5l-3.3,8.1l-3.4-8.2
				c-1.2-2.7-3.7-4.5-6.4-4.5c-0.9,0-1.7,0.2-2.5,0.5c-1.6,0.6-2.8,1.9-3.5,3.5c-0.7,1.8-0.7,3.8,0.1,5.6l8.5,20.4L265,81.3
				c-0.8,1.8-0.8,3.8-0.1,5.6c0.7,1.6,1.9,2.9,3.5,3.5c0.8,0.3,1.7,0.5,2.5,0.5c2.7,0,5.3-1.8,6.5-4.5l3.4-8.2l3.3,8.2
				c1.2,2.7,3.7,4.5,6.5,4.5c0.9,0,1.7-0.2,2.5-0.5c1.6-0.6,2.8-1.8,3.5-3.4c0.8-1.8,0.8-3.8,0-5.6l-8.6-20.7l8.6-20.4
				C297.3,38.4,297.2,36.3,296.5,34.6z"/>
			<g>
				<path class="st1" d="M333.4,53c0,0,0.3,0,0.3-0.3v-5.3c0-1.1-0.9-2-1.9-2c-1.1,0-2,0.9-2,2v5.3c0,0.3,0.3,0.3,0.3,0.3H333.4z"/>
				<path class="st0" d="M341.1,65.3c-3.9-0.2-7.1,2.7-7.4,6.6v1.4c0,1.1-1.1,2-2,2c-1.1,0-2-0.9-2-2V63.2c0-0.2,0.2-0.4,0.3-0.4h12
					c3,0,5.5-2.4,5.5-5.4V44.6c0-7.7-7-14-15.7-14c-8.7,0-15.8,6.3-15.8,14v32.1c0,7.7,7.1,14,15.8,14c8.7,0,15.8-6.2,15.9-13.8
					l0.1-4.3C348,68.9,345,65.5,341.1,65.3z M328.4,52.7v-5.3c0-1.8,1.5-3.3,3.3-3.3c1.7,0,3.2,1.5,3.2,3.3v6.2h-0.3
					c-0.3,0.4-0.8,0.6-1.2,0.6h-3.4C329.2,54.2,328.4,53.7,328.4,52.7z"/>
			</g>
			<path class="st0" d="M381.4,36.7c-0.8-2.8-3.6-6.2-8.6-6.2c-5.3,0-8.2,4.8-8.8,5.7c0,0,0,0,0,0c0,0,0-0.1,0-0.2l-0.1-0.5h-0.2
				c-0.9-3-3.5-5.1-6.4-5.1c-3.7,0-6.8,3.2-6.8,7.2v45.8c0,4,3,7.2,6.8,7.2s6.8-3.2,6.8-7.2V52.1c0-4.4,0.6-5.1,1.6-5.6
				c0.9-0.4,1.6-0.1,2.3,1c0.2,0.3,0.4,0.9,0.6,1.5c0.6,1.7,1.3,4,3.8,5.3c0.9,0.4,1.8,0.7,2.8,0.7c2,0,4.1-1,5.3-2.5
				C383.1,49.1,382.4,40.6,381.4,36.7z"/>
			<g>
				<path class="st0" d="M248.7,30.5c-8.7,0-15.8,6.4-15.8,14.2v31.9c0,7.8,7.1,14.2,15.8,14.2c8.7,0,15.8-6.3,15.8-14.2V44.7
					C264.5,36.9,257.4,30.5,248.7,30.5z M251.8,73.2c0,1.9-1.4,3.4-3.2,3.4c-1.8,0-3.3-1.5-3.3-3.4V47.6c0-1.9,1.5-3.4,3.3-3.4
					c1.8,0,3.2,1.5,3.2,3.4V73.2z"/>
			</g>
			<path class="st0" d="M306.5,5c-3.7,0-6.8,3.2-6.8,7.2v71.3c0,4,3,7.2,6.8,7.2s6.8-3.2,6.8-7.2V12.2C313.3,8.3,310.3,5,306.5,5z"
				/>
		</g>
	</g>
</g>
</svg>
